<svg id="Layer_1" data-name="Layer 1" xmlns="http://www.w3.org/2000/svg" viewBox="0 0 60 60"
transform="translate(8,8)" >
  <defs>
    <style>
      .cls-1 {
        fill: #bd1e1a;
      }
    </style>
  </defs>
  <title>robusta logo</title>
  <path class="cls-1" d="M198.73,224V220.6c0-4-.07-6.2-.22-9.08l-5.76-.64v-2.52l9.79-4.32,1.08.72.87,9V224c0,4.47.07,11.88.21,15.12h-6.19C198.66,235.86,198.73,228.45,198.73,224Zm-5.4,12.6,7.92-1.44h1.44l7.92,1.44v2.52H193.33Zm8.28-22.32h4.1l-1.8.5c2.31-6.69,6.7-10.72,11-10.72a6.16,6.16,0,0,1,5.11,2.44c0,3.39-1.3,5.26-4.18,5.26a6.58,6.58,0,0,1-4.32-1.73l-1.94-1.65,3.53-.72c-4.47,2.3-7.06,5.9-8.72,11.44h-2.73Z" transform="translate(-192.75 -204.04)"/>
</svg>
